<mxfile host="app.diagrams.net" modified="2024-03-16T19:13:36.465Z" agent="Mozilla/5.0 (Windows NT 10.0; Win64; x64) AppleWebKit/537.36 (KHTML, like Gecko) Chrome/121.0.0.0 Safari/537.36 OPR/107.0.0.0" etag="83MUhAQky4wprt5kNSdA" version="23.1.8" type="device">
  <diagram name="Page-1" id="eCgWZQPhnAC-uLk3HHvT">
    <mxGraphModel dx="1393" dy="776" grid="1" gridSize="10" guides="1" tooltips="1" connect="1" arrows="1" fold="1" page="1" pageScale="1" pageWidth="4000" pageHeight="1800" math="0" shadow="0">
      <root>
        <mxCell id="0" />
        <mxCell id="1" parent="0" />
        <mxCell id="KwvTYA5Mojt_Yshx7RqB-7" value="" style="edgeStyle=orthogonalEdgeStyle;rounded=0;orthogonalLoop=1;jettySize=auto;html=1;" edge="1" parent="1" source="KwvTYA5Mojt_Yshx7RqB-1" target="KwvTYA5Mojt_Yshx7RqB-2">
          <mxGeometry relative="1" as="geometry" />
        </mxCell>
        <mxCell id="KwvTYA5Mojt_Yshx7RqB-1" value="Start" style="ellipse;whiteSpace=wrap;html=1;" vertex="1" parent="1">
          <mxGeometry x="80" y="40" width="120" height="80" as="geometry" />
        </mxCell>
        <mxCell id="KwvTYA5Mojt_Yshx7RqB-8" value="" style="edgeStyle=orthogonalEdgeStyle;rounded=0;orthogonalLoop=1;jettySize=auto;html=1;" edge="1" parent="1" source="KwvTYA5Mojt_Yshx7RqB-2" target="KwvTYA5Mojt_Yshx7RqB-4">
          <mxGeometry relative="1" as="geometry" />
        </mxCell>
        <mxCell id="KwvTYA5Mojt_Yshx7RqB-2" value="Draw cards" style="rounded=0;whiteSpace=wrap;html=1;" vertex="1" parent="1">
          <mxGeometry x="80" y="160" width="120" height="60" as="geometry" />
        </mxCell>
        <mxCell id="KwvTYA5Mojt_Yshx7RqB-55" style="edgeStyle=orthogonalEdgeStyle;rounded=0;orthogonalLoop=1;jettySize=auto;html=1;exitX=0.5;exitY=1;exitDx=0;exitDy=0;entryX=0.5;entryY=0;entryDx=0;entryDy=0;" edge="1" parent="1" source="KwvTYA5Mojt_Yshx7RqB-4" target="KwvTYA5Mojt_Yshx7RqB-54">
          <mxGeometry relative="1" as="geometry" />
        </mxCell>
        <mxCell id="KwvTYA5Mojt_Yshx7RqB-56" value="Yes" style="edgeLabel;html=1;align=center;verticalAlign=middle;resizable=0;points=[];" vertex="1" connectable="0" parent="KwvTYA5Mojt_Yshx7RqB-55">
          <mxGeometry x="-0.1833" y="2" relative="1" as="geometry">
            <mxPoint as="offset" />
          </mxGeometry>
        </mxCell>
        <mxCell id="KwvTYA5Mojt_Yshx7RqB-73" style="edgeStyle=orthogonalEdgeStyle;rounded=0;orthogonalLoop=1;jettySize=auto;html=1;exitX=1;exitY=0.5;exitDx=0;exitDy=0;entryX=0.5;entryY=0;entryDx=0;entryDy=0;" edge="1" parent="1" source="KwvTYA5Mojt_Yshx7RqB-4" target="KwvTYA5Mojt_Yshx7RqB-15">
          <mxGeometry relative="1" as="geometry">
            <Array as="points">
              <mxPoint x="300" y="320" />
              <mxPoint x="300" y="580" />
              <mxPoint x="140" y="580" />
            </Array>
          </mxGeometry>
        </mxCell>
        <mxCell id="KwvTYA5Mojt_Yshx7RqB-74" value="No" style="edgeLabel;html=1;align=center;verticalAlign=middle;resizable=0;points=[];" vertex="1" connectable="0" parent="KwvTYA5Mojt_Yshx7RqB-73">
          <mxGeometry x="-0.8656" y="1" relative="1" as="geometry">
            <mxPoint as="offset" />
          </mxGeometry>
        </mxCell>
        <mxCell id="KwvTYA5Mojt_Yshx7RqB-4" value="Draw card?" style="rhombus;whiteSpace=wrap;html=1;" vertex="1" parent="1">
          <mxGeometry x="80" y="280" width="120" height="80" as="geometry" />
        </mxCell>
        <mxCell id="KwvTYA5Mojt_Yshx7RqB-75" style="edgeStyle=orthogonalEdgeStyle;rounded=0;orthogonalLoop=1;jettySize=auto;html=1;exitX=0.5;exitY=1;exitDx=0;exitDy=0;entryX=0.5;entryY=0;entryDx=0;entryDy=0;" edge="1" parent="1" source="KwvTYA5Mojt_Yshx7RqB-15" target="KwvTYA5Mojt_Yshx7RqB-25">
          <mxGeometry relative="1" as="geometry" />
        </mxCell>
        <mxCell id="KwvTYA5Mojt_Yshx7RqB-76" value="Yes" style="edgeLabel;html=1;align=center;verticalAlign=middle;resizable=0;points=[];" vertex="1" connectable="0" parent="KwvTYA5Mojt_Yshx7RqB-75">
          <mxGeometry x="-0.2" y="-2" relative="1" as="geometry">
            <mxPoint as="offset" />
          </mxGeometry>
        </mxCell>
        <mxCell id="KwvTYA5Mojt_Yshx7RqB-77" style="edgeStyle=orthogonalEdgeStyle;rounded=0;orthogonalLoop=1;jettySize=auto;html=1;exitX=1;exitY=0.5;exitDx=0;exitDy=0;entryX=0.5;entryY=0;entryDx=0;entryDy=0;" edge="1" parent="1" source="KwvTYA5Mojt_Yshx7RqB-15" target="KwvTYA5Mojt_Yshx7RqB-49">
          <mxGeometry relative="1" as="geometry">
            <Array as="points">
              <mxPoint x="380" y="640" />
            </Array>
          </mxGeometry>
        </mxCell>
        <mxCell id="KwvTYA5Mojt_Yshx7RqB-78" value="No" style="edgeLabel;html=1;align=center;verticalAlign=middle;resizable=0;points=[];" vertex="1" connectable="0" parent="KwvTYA5Mojt_Yshx7RqB-77">
          <mxGeometry x="-0.9448" y="-2" relative="1" as="geometry">
            <mxPoint as="offset" />
          </mxGeometry>
        </mxCell>
        <mxCell id="KwvTYA5Mojt_Yshx7RqB-15" value="Is dealer total &amp;lt; 16?" style="rhombus;whiteSpace=wrap;html=1;" vertex="1" parent="1">
          <mxGeometry x="80" y="600" width="120" height="80" as="geometry" />
        </mxCell>
        <mxCell id="KwvTYA5Mojt_Yshx7RqB-47" style="edgeStyle=orthogonalEdgeStyle;rounded=0;orthogonalLoop=1;jettySize=auto;html=1;exitX=0.5;exitY=1;exitDx=0;exitDy=0;entryX=0.5;entryY=0;entryDx=0;entryDy=0;" edge="1" parent="1" source="KwvTYA5Mojt_Yshx7RqB-23" target="KwvTYA5Mojt_Yshx7RqB-46">
          <mxGeometry relative="1" as="geometry" />
        </mxCell>
        <mxCell id="KwvTYA5Mojt_Yshx7RqB-23" value="Output &lt;br&gt;&quot;Player wins&quot;" style="shape=parallelogram;perimeter=parallelogramPerimeter;whiteSpace=wrap;html=1;fixedSize=1;" vertex="1" parent="1">
          <mxGeometry x="320" y="900" width="120" height="60" as="geometry" />
        </mxCell>
        <mxCell id="KwvTYA5Mojt_Yshx7RqB-48" style="edgeStyle=orthogonalEdgeStyle;rounded=0;orthogonalLoop=1;jettySize=auto;html=1;exitX=0.5;exitY=1;exitDx=0;exitDy=0;entryX=0.5;entryY=0;entryDx=0;entryDy=0;" edge="1" parent="1" source="KwvTYA5Mojt_Yshx7RqB-24" target="KwvTYA5Mojt_Yshx7RqB-46">
          <mxGeometry relative="1" as="geometry" />
        </mxCell>
        <mxCell id="KwvTYA5Mojt_Yshx7RqB-24" value="Output&lt;br&gt;&quot;Dealer win&quot;" style="shape=parallelogram;perimeter=parallelogramPerimeter;whiteSpace=wrap;html=1;fixedSize=1;" vertex="1" parent="1">
          <mxGeometry x="480" y="900" width="120" height="60" as="geometry" />
        </mxCell>
        <mxCell id="KwvTYA5Mojt_Yshx7RqB-68" style="edgeStyle=orthogonalEdgeStyle;rounded=0;orthogonalLoop=1;jettySize=auto;html=1;exitX=0.5;exitY=1;exitDx=0;exitDy=0;entryX=0.5;entryY=0;entryDx=0;entryDy=0;" edge="1" parent="1" source="KwvTYA5Mojt_Yshx7RqB-25" target="KwvTYA5Mojt_Yshx7RqB-67">
          <mxGeometry relative="1" as="geometry" />
        </mxCell>
        <mxCell id="KwvTYA5Mojt_Yshx7RqB-25" value="in_play =&lt;br&gt;dealer.drawCard()" style="shape=process;whiteSpace=wrap;html=1;backgroundOutline=1;" vertex="1" parent="1">
          <mxGeometry x="80" y="720" width="120" height="60" as="geometry" />
        </mxCell>
        <mxCell id="KwvTYA5Mojt_Yshx7RqB-45" style="edgeStyle=orthogonalEdgeStyle;rounded=0;orthogonalLoop=1;jettySize=auto;html=1;exitX=0.5;exitY=1;exitDx=0;exitDy=0;entryX=0.5;entryY=0;entryDx=0;entryDy=0;" edge="1" parent="1" source="KwvTYA5Mojt_Yshx7RqB-26" target="KwvTYA5Mojt_Yshx7RqB-27">
          <mxGeometry relative="1" as="geometry" />
        </mxCell>
        <mxCell id="KwvTYA5Mojt_Yshx7RqB-26" value="drawCard(self)" style="ellipse;whiteSpace=wrap;html=1;" vertex="1" parent="1">
          <mxGeometry x="800" y="40" width="120" height="80" as="geometry" />
        </mxCell>
        <mxCell id="KwvTYA5Mojt_Yshx7RqB-32" style="edgeStyle=orthogonalEdgeStyle;rounded=0;orthogonalLoop=1;jettySize=auto;html=1;exitX=0.5;exitY=1;exitDx=0;exitDy=0;entryX=0.5;entryY=0;entryDx=0;entryDy=0;" edge="1" parent="1" source="KwvTYA5Mojt_Yshx7RqB-27" target="KwvTYA5Mojt_Yshx7RqB-28">
          <mxGeometry relative="1" as="geometry" />
        </mxCell>
        <mxCell id="KwvTYA5Mojt_Yshx7RqB-27" value="Draw card" style="rounded=0;whiteSpace=wrap;html=1;" vertex="1" parent="1">
          <mxGeometry x="800" y="160" width="120" height="60" as="geometry" />
        </mxCell>
        <mxCell id="KwvTYA5Mojt_Yshx7RqB-33" style="edgeStyle=orthogonalEdgeStyle;rounded=0;orthogonalLoop=1;jettySize=auto;html=1;exitX=0.5;exitY=1;exitDx=0;exitDy=0;entryX=0.5;entryY=0;entryDx=0;entryDy=0;" edge="1" parent="1" source="KwvTYA5Mojt_Yshx7RqB-28" target="KwvTYA5Mojt_Yshx7RqB-29">
          <mxGeometry relative="1" as="geometry" />
        </mxCell>
        <mxCell id="KwvTYA5Mojt_Yshx7RqB-28" value="Output new card" style="shape=parallelogram;perimeter=parallelogramPerimeter;whiteSpace=wrap;html=1;fixedSize=1;" vertex="1" parent="1">
          <mxGeometry x="800" y="240" width="120" height="60" as="geometry" />
        </mxCell>
        <mxCell id="KwvTYA5Mojt_Yshx7RqB-34" style="edgeStyle=orthogonalEdgeStyle;rounded=0;orthogonalLoop=1;jettySize=auto;html=1;exitX=0.5;exitY=1;exitDx=0;exitDy=0;entryX=0.5;entryY=0;entryDx=0;entryDy=0;" edge="1" parent="1" source="KwvTYA5Mojt_Yshx7RqB-29" target="KwvTYA5Mojt_Yshx7RqB-30">
          <mxGeometry relative="1" as="geometry" />
        </mxCell>
        <mxCell id="KwvTYA5Mojt_Yshx7RqB-29" value="Update self.total" style="rounded=0;whiteSpace=wrap;html=1;" vertex="1" parent="1">
          <mxGeometry x="800" y="320" width="120" height="60" as="geometry" />
        </mxCell>
        <mxCell id="KwvTYA5Mojt_Yshx7RqB-36" style="edgeStyle=orthogonalEdgeStyle;rounded=0;orthogonalLoop=1;jettySize=auto;html=1;exitX=0.5;exitY=1;exitDx=0;exitDy=0;entryX=0.5;entryY=0;entryDx=0;entryDy=0;" edge="1" parent="1" source="KwvTYA5Mojt_Yshx7RqB-30" target="KwvTYA5Mojt_Yshx7RqB-35">
          <mxGeometry relative="1" as="geometry" />
        </mxCell>
        <mxCell id="KwvTYA5Mojt_Yshx7RqB-30" value="Output selftotal" style="shape=parallelogram;perimeter=parallelogramPerimeter;whiteSpace=wrap;html=1;fixedSize=1;" vertex="1" parent="1">
          <mxGeometry x="800" y="400" width="120" height="60" as="geometry" />
        </mxCell>
        <mxCell id="KwvTYA5Mojt_Yshx7RqB-40" style="edgeStyle=orthogonalEdgeStyle;rounded=0;orthogonalLoop=1;jettySize=auto;html=1;exitX=0.5;exitY=1;exitDx=0;exitDy=0;entryX=0.5;entryY=0;entryDx=0;entryDy=0;" edge="1" parent="1" source="KwvTYA5Mojt_Yshx7RqB-35" target="KwvTYA5Mojt_Yshx7RqB-39">
          <mxGeometry relative="1" as="geometry" />
        </mxCell>
        <mxCell id="KwvTYA5Mojt_Yshx7RqB-44" value="Yes" style="edgeLabel;html=1;align=center;verticalAlign=middle;resizable=0;points=[];" vertex="1" connectable="0" parent="KwvTYA5Mojt_Yshx7RqB-40">
          <mxGeometry x="-0.1" relative="1" as="geometry">
            <mxPoint as="offset" />
          </mxGeometry>
        </mxCell>
        <mxCell id="KwvTYA5Mojt_Yshx7RqB-41" style="edgeStyle=orthogonalEdgeStyle;rounded=0;orthogonalLoop=1;jettySize=auto;html=1;exitX=1;exitY=0.5;exitDx=0;exitDy=0;entryX=0.5;entryY=0;entryDx=0;entryDy=0;" edge="1" parent="1" source="KwvTYA5Mojt_Yshx7RqB-35" target="KwvTYA5Mojt_Yshx7RqB-38">
          <mxGeometry relative="1" as="geometry" />
        </mxCell>
        <mxCell id="KwvTYA5Mojt_Yshx7RqB-43" value="No" style="edgeLabel;html=1;align=center;verticalAlign=middle;resizable=0;points=[];" vertex="1" connectable="0" parent="KwvTYA5Mojt_Yshx7RqB-41">
          <mxGeometry x="-0.5538" y="-4" relative="1" as="geometry">
            <mxPoint as="offset" />
          </mxGeometry>
        </mxCell>
        <mxCell id="KwvTYA5Mojt_Yshx7RqB-35" value="Is self.total &amp;gt; 21?" style="rhombus;whiteSpace=wrap;html=1;" vertex="1" parent="1">
          <mxGeometry x="800" y="480" width="120" height="80" as="geometry" />
        </mxCell>
        <mxCell id="KwvTYA5Mojt_Yshx7RqB-37" value="Return False" style="ellipse;whiteSpace=wrap;html=1;" vertex="1" parent="1">
          <mxGeometry x="800" y="660" width="120" height="80" as="geometry" />
        </mxCell>
        <mxCell id="KwvTYA5Mojt_Yshx7RqB-38" value="Return True" style="ellipse;whiteSpace=wrap;html=1;" vertex="1" parent="1">
          <mxGeometry x="960" y="660" width="120" height="80" as="geometry" />
        </mxCell>
        <mxCell id="KwvTYA5Mojt_Yshx7RqB-42" style="edgeStyle=orthogonalEdgeStyle;rounded=0;orthogonalLoop=1;jettySize=auto;html=1;exitX=0.5;exitY=1;exitDx=0;exitDy=0;entryX=0.5;entryY=0;entryDx=0;entryDy=0;" edge="1" parent="1" source="KwvTYA5Mojt_Yshx7RqB-39" target="KwvTYA5Mojt_Yshx7RqB-37">
          <mxGeometry relative="1" as="geometry" />
        </mxCell>
        <mxCell id="KwvTYA5Mojt_Yshx7RqB-39" value="Output&lt;br&gt;&quot;Bust!&quot;" style="shape=parallelogram;perimeter=parallelogramPerimeter;whiteSpace=wrap;html=1;fixedSize=1;" vertex="1" parent="1">
          <mxGeometry x="800" y="580" width="120" height="60" as="geometry" />
        </mxCell>
        <mxCell id="KwvTYA5Mojt_Yshx7RqB-46" value="End" style="ellipse;whiteSpace=wrap;html=1;" vertex="1" parent="1">
          <mxGeometry x="400" y="1000" width="120" height="80" as="geometry" />
        </mxCell>
        <mxCell id="KwvTYA5Mojt_Yshx7RqB-50" style="edgeStyle=orthogonalEdgeStyle;rounded=0;orthogonalLoop=1;jettySize=auto;html=1;exitX=0.5;exitY=1;exitDx=0;exitDy=0;entryX=0.5;entryY=0;entryDx=0;entryDy=0;" edge="1" parent="1" source="KwvTYA5Mojt_Yshx7RqB-49" target="KwvTYA5Mojt_Yshx7RqB-23">
          <mxGeometry relative="1" as="geometry" />
        </mxCell>
        <mxCell id="KwvTYA5Mojt_Yshx7RqB-52" value="Yes" style="edgeLabel;html=1;align=center;verticalAlign=middle;resizable=0;points=[];" vertex="1" connectable="0" parent="KwvTYA5Mojt_Yshx7RqB-50">
          <mxGeometry x="-0.6762" y="-3" relative="1" as="geometry">
            <mxPoint x="3" y="-1" as="offset" />
          </mxGeometry>
        </mxCell>
        <mxCell id="KwvTYA5Mojt_Yshx7RqB-51" style="edgeStyle=orthogonalEdgeStyle;rounded=0;orthogonalLoop=1;jettySize=auto;html=1;exitX=1;exitY=0.5;exitDx=0;exitDy=0;entryX=0.5;entryY=0;entryDx=0;entryDy=0;" edge="1" parent="1" source="KwvTYA5Mojt_Yshx7RqB-49" target="KwvTYA5Mojt_Yshx7RqB-24">
          <mxGeometry relative="1" as="geometry" />
        </mxCell>
        <mxCell id="KwvTYA5Mojt_Yshx7RqB-53" value="No" style="edgeLabel;html=1;align=center;verticalAlign=middle;resizable=0;points=[];" vertex="1" connectable="0" parent="KwvTYA5Mojt_Yshx7RqB-51">
          <mxGeometry x="-0.6921" y="-1" relative="1" as="geometry">
            <mxPoint x="-12" y="-1" as="offset" />
          </mxGeometry>
        </mxCell>
        <mxCell id="KwvTYA5Mojt_Yshx7RqB-49" value="Is player total &amp;gt; dealer total?" style="rhombus;whiteSpace=wrap;html=1;" vertex="1" parent="1">
          <mxGeometry x="320" y="750" width="120" height="80" as="geometry" />
        </mxCell>
        <mxCell id="KwvTYA5Mojt_Yshx7RqB-58" style="edgeStyle=orthogonalEdgeStyle;rounded=0;orthogonalLoop=1;jettySize=auto;html=1;exitX=0.5;exitY=1;exitDx=0;exitDy=0;entryX=0.5;entryY=0;entryDx=0;entryDy=0;" edge="1" parent="1" source="KwvTYA5Mojt_Yshx7RqB-54" target="KwvTYA5Mojt_Yshx7RqB-57">
          <mxGeometry relative="1" as="geometry" />
        </mxCell>
        <mxCell id="KwvTYA5Mojt_Yshx7RqB-54" value="in_play =&amp;nbsp;&lt;br&gt;player.drawCard()" style="shape=process;whiteSpace=wrap;html=1;backgroundOutline=1;" vertex="1" parent="1">
          <mxGeometry x="80" y="400" width="120" height="60" as="geometry" />
        </mxCell>
        <mxCell id="KwvTYA5Mojt_Yshx7RqB-59" style="edgeStyle=orthogonalEdgeStyle;rounded=0;orthogonalLoop=1;jettySize=auto;html=1;exitX=0.5;exitY=1;exitDx=0;exitDy=0;entryX=0.5;entryY=0;entryDx=0;entryDy=0;" edge="1" parent="1" source="KwvTYA5Mojt_Yshx7RqB-57" target="KwvTYA5Mojt_Yshx7RqB-4">
          <mxGeometry relative="1" as="geometry">
            <Array as="points">
              <mxPoint x="140" y="570" />
              <mxPoint x="60" y="570" />
              <mxPoint x="60" y="260" />
              <mxPoint x="140" y="260" />
            </Array>
          </mxGeometry>
        </mxCell>
        <mxCell id="KwvTYA5Mojt_Yshx7RqB-60" value="Yes" style="edgeLabel;html=1;align=center;verticalAlign=middle;resizable=0;points=[];" vertex="1" connectable="0" parent="KwvTYA5Mojt_Yshx7RqB-59">
          <mxGeometry x="-0.7782" relative="1" as="geometry">
            <mxPoint as="offset" />
          </mxGeometry>
        </mxCell>
        <mxCell id="KwvTYA5Mojt_Yshx7RqB-61" style="edgeStyle=orthogonalEdgeStyle;rounded=0;orthogonalLoop=1;jettySize=auto;html=1;exitX=1;exitY=0.5;exitDx=0;exitDy=0;entryX=0.5;entryY=0;entryDx=0;entryDy=0;" edge="1" parent="1" source="KwvTYA5Mojt_Yshx7RqB-57" target="KwvTYA5Mojt_Yshx7RqB-24">
          <mxGeometry relative="1" as="geometry">
            <Array as="points">
              <mxPoint x="540" y="520" />
            </Array>
          </mxGeometry>
        </mxCell>
        <mxCell id="KwvTYA5Mojt_Yshx7RqB-62" value="No" style="edgeLabel;html=1;align=center;verticalAlign=middle;resizable=0;points=[];" vertex="1" connectable="0" parent="KwvTYA5Mojt_Yshx7RqB-61">
          <mxGeometry x="-0.9102" y="-1" relative="1" as="geometry">
            <mxPoint as="offset" />
          </mxGeometry>
        </mxCell>
        <mxCell id="KwvTYA5Mojt_Yshx7RqB-57" value="in_play == True?" style="rhombus;whiteSpace=wrap;html=1;" vertex="1" parent="1">
          <mxGeometry x="80" y="480" width="120" height="80" as="geometry" />
        </mxCell>
        <mxCell id="KwvTYA5Mojt_Yshx7RqB-69" style="edgeStyle=orthogonalEdgeStyle;rounded=0;orthogonalLoop=1;jettySize=auto;html=1;exitX=0.5;exitY=1;exitDx=0;exitDy=0;entryX=0.5;entryY=0;entryDx=0;entryDy=0;" edge="1" parent="1" source="KwvTYA5Mojt_Yshx7RqB-67" target="KwvTYA5Mojt_Yshx7RqB-15">
          <mxGeometry relative="1" as="geometry">
            <Array as="points">
              <mxPoint x="140" y="920" />
              <mxPoint x="270" y="920" />
              <mxPoint x="270" y="580" />
              <mxPoint x="140" y="580" />
            </Array>
          </mxGeometry>
        </mxCell>
        <mxCell id="KwvTYA5Mojt_Yshx7RqB-70" value="Yes" style="edgeLabel;html=1;align=center;verticalAlign=middle;resizable=0;points=[];" vertex="1" connectable="0" parent="KwvTYA5Mojt_Yshx7RqB-69">
          <mxGeometry x="0.3206" y="3" relative="1" as="geometry">
            <mxPoint as="offset" />
          </mxGeometry>
        </mxCell>
        <mxCell id="KwvTYA5Mojt_Yshx7RqB-71" style="edgeStyle=orthogonalEdgeStyle;rounded=0;orthogonalLoop=1;jettySize=auto;html=1;exitX=1;exitY=0.5;exitDx=0;exitDy=0;entryX=0.5;entryY=0;entryDx=0;entryDy=0;" edge="1" parent="1" source="KwvTYA5Mojt_Yshx7RqB-67" target="KwvTYA5Mojt_Yshx7RqB-23">
          <mxGeometry relative="1" as="geometry" />
        </mxCell>
        <mxCell id="KwvTYA5Mojt_Yshx7RqB-72" value="No" style="edgeLabel;html=1;align=center;verticalAlign=middle;resizable=0;points=[];" vertex="1" connectable="0" parent="KwvTYA5Mojt_Yshx7RqB-71">
          <mxGeometry x="-0.8875" relative="1" as="geometry">
            <mxPoint as="offset" />
          </mxGeometry>
        </mxCell>
        <mxCell id="KwvTYA5Mojt_Yshx7RqB-67" value="in_play == True?" style="rhombus;whiteSpace=wrap;html=1;" vertex="1" parent="1">
          <mxGeometry x="80" y="820" width="120" height="80" as="geometry" />
        </mxCell>
      </root>
    </mxGraphModel>
  </diagram>
</mxfile>
